<svg width="200" height="303" viewBox="0 0 200 303" fill="none" xmlns="http://www.w3.org/2000/svg">
<g clip-path="url(#clip0_3_4)">
<path fill-rule="evenodd" clip-rule="evenodd" d="M9.98515 156.706C9.96914 157.082 9.9509 157.458 9.93264 157.833C9.89269 158.654 9.85275 159.475 9.83648 160.297C9.7786 163.221 9.73247 166.145 9.68633 169.07V169.073C9.67521 169.78 9.66404 170.486 9.65272 171.193C9.62591 172.867 9.59506 174.541 9.56422 176.216C9.49202 180.133 9.41985 184.051 9.39955 187.969C9.36424 194.796 9.39274 201.623 9.42124 208.449L9.42636 209.676C9.44233 213.537 9.47011 217.399 9.5717 221.259C9.70471 226.314 9.87891 231.37 10.1068 236.422C10.2527 239.657 10.4649 242.891 10.7577 246.116C11.3558 252.703 12.0785 259.281 13.388 265.771C14.1075 269.336 14.9135 272.892 15.8694 276.401C16.8608 280.04 18.9924 282.797 22.5925 284.331C26.6175 286.045 30.7813 287.268 35.0574 288.12C44.5177 290.005 54.0918 291.061 63.6862 291.946C67.2649 292.276 70.849 292.569 74.4365 292.779L74.6679 292.792C79.8612 293.095 85.0573 293.398 90.2565 293.526C92.6829 293.585 95.1131 293.494 97.5432 293.403C98.6187 293.363 99.6941 293.323 100.769 293.295C101.766 293.27 102.762 293.246 103.758 293.222C106.268 293.161 108.777 293.1 111.285 293.023C116.606 292.859 121.926 292.688 127.246 292.492C131.456 292.337 135.664 292.156 139.872 291.957C140.566 291.924 141.261 291.893 141.955 291.862L141.964 291.861C144.856 291.731 147.75 291.6 150.634 291.36C155.054 290.993 159.478 290.597 163.869 289.982C168.963 289.269 174.034 288.362 179.089 287.407C180.364 287.166 181.612 286.539 182.751 285.88C184.523 284.853 185.839 283.311 186.559 281.388C187.715 278.303 188.387 275.083 188.998 271.852C190.271 265.112 190.536 258.279 190.786 251.454C190.999 245.645 191.052 239.829 191.062 234.016C191.069 230.49 191.014 226.965 190.96 223.44L190.96 223.434C190.926 221.236 190.893 219.039 190.873 216.841C190.847 213.829 190.835 210.816 190.822 207.804C190.812 205.265 190.802 202.726 190.783 200.187C190.747 195.351 190.697 190.515 190.631 185.68C190.554 180.043 190.466 174.407 190.359 168.771C190.319 166.687 190.261 164.603 190.203 162.519C190.166 161.188 190.129 159.858 190.097 158.527C190.058 156.937 190.024 155.347 189.989 153.756C189.938 151.443 189.888 149.13 189.826 146.818C189.744 143.758 189.642 140.699 189.52 137.64C189.44 135.63 189.349 133.62 189.257 131.61L189.256 131.594C189.181 129.933 189.105 128.272 189.036 126.611C188.946 124.455 188.862 122.299 188.778 120.143C188.689 117.866 188.6 115.59 188.505 113.314C188.426 111.439 188.34 109.564 188.254 107.689C188.157 105.577 188.061 103.465 187.974 101.352C187.858 98.5292 187.753 95.7058 187.647 92.8824C187.579 91.0508 187.51 89.2192 187.439 87.3877C187.265 82.9111 187.086 78.4348 186.904 73.9586C186.859 72.8489 186.815 71.739 186.772 70.6292V70.6241C186.648 67.4802 186.525 64.3363 186.363 61.1944C186.138 56.8527 185.892 52.5109 185.563 48.1761C185.056 41.4903 184.263 34.8349 183.106 28.2288C182.647 25.6071 182.108 22.9967 181.513 20.4022C180.974 18.0476 179.438 16.5164 177.167 15.7684C176.837 15.6597 176.507 15.5494 176.176 15.4391L176.173 15.4379C174.481 14.8728 172.784 14.306 171.049 13.9321C166.321 12.9132 161.575 11.9551 156.808 11.1409C148.141 9.66064 139.394 8.7946 130.632 8.11925C125.901 7.7546 121.159 7.51002 116.418 7.31698C112.163 7.14378 107.904 7.05406 103.646 7.04073C100.997 7.03245 98.3472 7.09354 95.6977 7.15463L95.6958 7.15468C94.3977 7.18462 93.0996 7.21455 91.8015 7.23633C90.089 7.26506 88.3765 7.28976 86.664 7.31446C83.3627 7.36204 80.0613 7.40963 76.7606 7.4862C73.4781 7.56234 70.194 7.66965 66.9174 7.8727C62.8454 8.12504 58.771 8.40132 54.7149 8.83063C50.0391 9.32556 45.3521 9.82823 40.7254 10.6425C36.0976 11.457 31.5194 12.5852 26.9562 13.723C24.4212 14.3551 21.9321 15.2086 19.4761 16.1088C17.3826 16.8761 15.6835 18.2421 14.577 20.2261C13.5993 21.9791 12.9068 23.8387 12.4594 25.8089C10.722 33.4597 10.103 41.2443 9.67159 49.0459C9.44393 53.1627 9.30932 57.2909 9.32067 61.4134C9.34176 69.0667 9.4147 76.7198 9.48765 84.373C9.51794 87.5512 9.54824 90.7295 9.57482 93.9077C9.59093 95.8321 9.60499 97.7565 9.61904 99.681C9.63059 101.265 9.64218 102.848 9.65487 104.432C9.67517 106.962 9.69618 109.492 9.7172 112.022C9.7567 116.772 9.7962 121.522 9.83082 126.273C9.84641 128.412 9.85621 130.551 9.86613 132.721L9.86642 132.78L9.86662 132.827C9.87436 134.516 9.8822 136.224 9.89291 137.966C9.92974 138.077 9.96956 138.275 9.99774 138.528C9.95606 138.411 9.92599 138.239 9.893 137.982L9.89343 138.048C9.92404 138.228 9.95477 138.408 9.97396 138.845C9.9614 144.388 9.94883 149.931 9.9149 155.67C9.94392 155.929 9.97295 156.189 9.98515 156.706Z" fill="white"/>
<path d="M9.93245 155.575C9.97605 155.757 10.0089 156.036 10.0253 156.384C9.97979 156.192 9.95077 155.932 9.93245 155.575Z" fill="#3F3F3F"/>
<path d="M86.5586 159.206C86.5618 157.452 86.5686 155.697 86.5754 153.943C86.5942 149.08 86.613 144.216 86.5553 139.354C86.5378 137.875 86.1853 136.347 85.7032 134.939C84.6843 131.963 81.9996 129.375 77.8609 129.424C75.7094 129.45 73.6573 130.236 71.8311 131.36C66.7373 134.496 63.3646 138.973 61.7947 144.763C60.9995 147.696 60.7309 150.697 60.7473 153.73L60.7515 154.489V154.496C60.7654 156.995 60.7792 159.493 60.7605 161.991C60.7137 168.249 60.6474 174.507 60.5792 180.765C60.5681 181.785 60.5242 182.806 60.4646 183.825C60.4053 184.838 60.1097 185.188 59.0856 185.241C56.2056 185.391 53.3235 185.516 50.4406 185.589C49.2754 185.618 49.0521 185.359 49.0361 184.157C49.0064 181.932 48.9961 179.707 48.9857 177.482L48.9856 177.471C48.9813 176.546 48.9771 175.622 48.9714 174.698C48.9504 171.283 48.9293 167.868 48.9081 164.452C48.8823 160.278 48.8565 156.104 48.8309 151.93C48.8231 150.668 48.8129 149.405 48.8026 148.143L48.8025 148.134C48.7779 145.094 48.7533 142.053 48.7637 139.012C48.7737 136.086 47.7998 133.541 46.025 131.263C44.7322 129.604 43.0762 128.608 40.9428 128.466C40.3682 128.428 39.7957 128.342 39.2258 128.255C38.6349 128.165 38.2276 127.846 38.2108 127.213C38.2087 127.131 38.2064 127.049 38.2041 126.967L38.2039 126.962V126.959C38.1828 126.2 38.1615 125.437 38.2332 124.685C38.325 123.722 38.6263 123.452 39.6207 123.449C41.9738 123.441 44.3275 123.467 46.68 123.521C47.9354 123.55 49.1903 123.596 50.4452 123.643C51.7166 123.689 52.9883 123.736 54.2601 123.765C55.1918 123.786 56.1241 123.782 57.0564 123.778C57.8566 123.775 58.6567 123.771 59.4565 123.784C60.6517 123.803 60.9926 124.101 60.9925 125.285C60.9924 126.707 60.9581 128.129 60.9238 129.551C60.9036 130.389 60.8834 131.227 60.8702 132.065C60.8579 132.847 60.8609 133.63 60.8641 134.438L60.8652 134.715C60.8657 134.849 60.8661 134.985 60.8665 135.122C60.8669 135.273 60.8671 135.426 60.8671 135.58C61.3998 135.518 61.5754 135.192 61.7366 134.892C61.7777 134.815 61.8179 134.74 61.8629 134.672C63.8784 131.611 66.211 128.836 69.0922 126.546C71.992 124.242 75.2019 122.52 78.8835 121.985C85.0635 121.088 90.1508 123.135 94.0405 128.059C96.8161 131.573 98.1183 135.593 98.152 140.048C98.155 140.447 98.1897 140.846 98.2299 141.243C98.3772 142.698 98.4177 144.131 98.2379 145.608C98.0893 146.829 98.112 148.071 98.1347 149.312C98.1446 149.852 98.1545 150.392 98.1503 150.93C98.1434 151.807 98.1382 152.684 98.133 153.561L98.1329 153.571C98.1206 155.619 98.1084 157.668 98.0757 159.716C98.0602 160.685 98.0249 161.655 97.9896 162.625L97.9894 162.629V162.633C97.9311 164.232 97.8728 165.831 97.9035 167.428C97.9605 170.392 98.6154 173.241 100.197 175.808C101.17 177.386 102.364 178.769 104.132 179.459C105.07 179.826 106.085 180.023 107.082 180.208C108.33 180.44 108.43 180.483 108.45 181.707C108.46 182.282 108.451 182.866 108.361 183.432C108.174 184.599 107.971 184.777 106.809 184.799C105.343 184.826 103.877 184.815 102.412 184.803C101.746 184.797 101.081 184.78 100.416 184.763C99.9717 184.752 99.5275 184.74 99.0833 184.732C97.4604 184.703 95.8375 184.675 94.2146 184.646C92.2446 184.612 90.2747 184.578 88.3048 184.542C88.153 184.539 88.0015 184.525 87.8499 184.511C87.7359 184.501 87.6218 184.49 87.5076 184.485C86.8667 184.453 86.5342 184.084 86.4718 183.481C86.4216 182.997 86.4188 182.506 86.4221 182.018C86.4483 178.131 86.4756 174.243 86.5032 170.328L86.5034 170.307L86.5073 169.746C86.5308 166.431 86.5543 163.094 86.5773 159.721C86.5699 159.423 86.5643 159.314 86.5586 159.206Z" fill="#3F3F3F"/>
<path fill-rule="evenodd" clip-rule="evenodd" d="M154.826 249.992L154.821 249.992C154.286 250.036 153.734 250.081 153.116 250.128C151.463 250.089 150.659 250.851 150.089 252.285C148.814 255.494 146.891 258.321 144.339 260.675C139.49 265.145 133.858 266.865 127.38 265.271C123.046 264.205 119.56 261.737 116.759 258.318C111.894 252.378 109.995 245.442 110.101 237.878C110.133 235.644 110.19 235.642 112.45 235.641C120.367 235.641 128.285 235.641 136.202 235.641L150.283 235.641C150.558 235.641 150.833 235.642 151.107 235.642C151.31 235.642 151.513 235.643 151.715 235.643C153.014 235.646 154.313 235.648 155.611 235.632C156.871 235.617 157.142 235.438 157.212 234.201C157.221 234.034 157.231 233.866 157.241 233.698L157.242 233.68C157.331 232.168 157.421 230.635 157.224 229.151C156.131 220.892 151.766 214.762 144.454 210.947C138.84 208.018 132.76 206.864 126.383 207.654C118.691 208.606 112.262 212.003 107.112 217.731C102.351 223.025 99.7954 229.34 99.2282 236.412C98.7084 242.893 99.9475 249.054 103.104 254.778C106.852 261.576 112.345 266.404 119.609 269.159C124.256 270.921 129.069 271.444 134.009 270.845C138.353 270.318 142.385 268.893 146.132 266.667C150.329 264.174 153.179 260.478 155.164 256.107C155.853 254.588 156.288 252.934 156.675 251.303C156.934 250.209 156.488 249.858 155.356 249.949C155.182 249.963 155.008 249.977 154.833 249.991L154.826 249.992ZM126.954 230.153C126.569 230.154 126.185 230.156 125.8 230.157C125.442 230.159 125.085 230.16 124.727 230.162L124.529 230.173C124.38 230.182 124.235 230.19 124.092 230.199L124.091 230.199C123.155 230.254 122.357 230.3 121.559 230.305C118.72 230.32 115.881 230.316 113.043 230.304C112.7 230.303 112.357 230.271 111.984 230.235C111.802 230.218 111.614 230.2 111.414 230.185C111.43 230.013 111.437 229.858 111.443 229.715C111.454 229.442 111.464 229.215 111.533 229.009C113.363 223.54 116.193 218.73 121.071 215.444C125.921 212.176 131.218 211.405 136.806 213.254C141.183 214.703 143.581 219.082 142.322 223.232C141.69 225.316 140.327 226.876 138.547 228.063C136.587 229.371 134.413 230.087 132.043 230.118C130.348 230.141 128.652 230.147 126.956 230.153H126.954Z" fill="#3F3F3F"/>
<path fill-rule="evenodd" clip-rule="evenodd" d="M149.915 46.0663C152.949 48.9325 155.04 52.2774 156.333 56.1493C157.338 59.1608 157.476 62.2425 157.234 65.3608C157.128 66.7369 156.896 66.9097 155.462 66.9117C149.932 66.9193 144.401 66.9189 138.87 66.9185C137.34 66.9184 135.809 66.9183 134.278 66.9183C132.73 66.9184 131.183 66.9183 129.635 66.9181L126.75 66.9178C121.887 66.9172 117.024 66.9166 112.161 66.9189C110.198 66.9199 110.171 66.9278 110.114 68.9122C109.915 75.712 111.487 82.0429 115.321 87.7121C117.598 91.0791 120.508 93.7935 124.279 95.4414C131.053 98.4013 137.374 97.519 143.157 92.9784C146.406 90.4278 148.69 87.0982 150.212 83.2873C150.72 82.0127 151.489 81.4804 152.766 81.422C153.318 81.3968 153.868 81.3479 154.419 81.2989C154.753 81.2693 155.087 81.2396 155.421 81.2153C156.467 81.1389 156.917 81.496 156.682 82.5128C156.315 84.1032 155.904 85.7156 155.243 87.1998C153.252 91.6754 150.363 95.4481 146.075 97.9811C142.401 100.151 138.451 101.558 134.203 102.1C129.221 102.736 124.362 102.226 119.665 100.456C112.394 97.7158 106.892 92.896 103.13 86.1041C99.94 80.3435 98.6951 74.1377 99.2335 67.6094C99.8167 60.5377 102.39 54.2261 107.166 48.9454C112.332 43.2321 118.77 39.8512 126.468 38.9216C132.849 38.1511 138.839 39.4851 144.551 42.2308C146.51 43.1724 148.282 44.4629 149.915 46.0663ZM112.752 61.5849C113.998 61.5667 115.244 61.5476 116.491 61.5285C119.5 61.4823 122.509 61.4362 125.518 61.4026C126.607 61.3904 127.695 61.3943 128.784 61.3982C129.869 61.4021 130.954 61.4059 132.038 61.3939C134.409 61.3677 136.583 60.649 138.545 59.3417C140.325 58.155 141.689 56.5944 142.322 54.5104C143.597 50.3106 141.133 45.9279 136.68 44.4834C131.782 42.8943 127.03 43.3263 122.543 45.8263C116.789 49.0324 113.578 54.2406 111.531 60.2939C111.205 61.2598 111.37 61.4133 112.752 61.5849Z" fill="#3F3F3F"/>
<path d="M69.7984 264.197C68.8683 262.76 68.3477 261.159 67.9597 259.392C67.5294 257.133 67.5172 254.975 67.5523 252.789C67.5977 249.965 67.5691 247.139 67.5404 244.313C67.5209 242.387 67.5014 240.461 67.5054 238.535C67.5089 236.808 67.6373 235.079 67.7748 233.355C68.0242 230.23 69.3319 227.732 72.2132 226.245C72.8815 225.899 73.5759 225.586 74.2884 225.348C77.1316 224.399 80.0617 223.945 83.0576 223.916C83.5357 223.911 84.014 223.912 84.4922 223.914C85.3468 223.916 86.2014 223.918 87.0548 223.887C88.0321 223.851 88.2205 223.648 88.2628 222.684C88.3036 221.753 88.2989 220.818 88.2728 219.886C88.2308 218.379 87.9883 218.119 86.4326 218.142C85.0414 218.163 83.6506 218.214 82.2598 218.265C81.3898 218.297 80.5198 218.329 79.6496 218.353C76.0121 218.456 72.3744 218.554 68.7363 218.635C67.764 218.656 67.5793 218.46 67.5102 217.484C67.4889 217.183 67.4913 216.88 67.4936 216.577V216.575C67.4944 216.479 67.4951 216.382 67.4951 216.285C67.4947 214.714 67.4947 213.143 67.4946 211.572C67.4946 209.367 67.4946 207.163 67.4936 204.958C67.4935 204.727 67.4883 204.496 67.483 204.265C67.4812 204.183 67.4793 204.101 67.4777 204.018C67.4759 203.932 67.4745 203.845 67.4735 203.759C67.4661 203.072 67.1468 202.648 66.4392 202.637C65.0633 202.616 63.6867 202.614 62.3107 202.63C61.7431 202.637 61.4107 202.974 61.3357 203.534C61.2756 203.983 61.224 204.433 61.1725 204.883L61.1719 204.888C61.1429 205.141 61.1139 205.394 61.0834 205.647C60.8906 207.245 60.5438 208.8 59.7361 210.214C56.7821 215.385 52.2223 218.249 46.4728 219.338L46.2892 219.372C44.1289 219.78 44.1141 219.782 43.9768 222.091C43.8475 224.266 43.9867 224.408 46.2083 224.45C46.3392 224.453 46.4708 224.453 46.6026 224.454C47.0961 224.456 47.593 224.459 48.0676 224.557L48.1905 224.583C49.4469 224.843 50.7137 225.106 51.9201 225.528C53.353 226.029 54.2705 227.138 54.5974 228.619C54.8831 229.913 55.175 231.237 55.2019 232.553C55.3 237.351 55.3414 242.151 55.3828 246.951C55.393 248.137 55.4032 249.323 55.4143 250.508C55.4214 251.266 55.4164 252.024 55.4113 252.781C55.404 253.89 55.3966 254.998 55.4272 256.105C55.5435 260.321 56.4735 264.31 59.0922 267.723C61.8333 271.296 65.4422 273.297 70.0023 273.501C73.6493 273.664 76.9556 272.587 79.95 270.637C81.2907 269.764 82.4862 268.655 83.6716 267.555C83.8535 267.386 84.0351 267.218 84.217 267.05C85.0123 266.318 84.944 265.967 84.1946 265.152C83.9877 264.927 83.7758 264.706 83.5639 264.486L83.5628 264.484C83.4674 264.385 83.372 264.286 83.277 264.186C82.2887 263.148 82.1325 263.188 81.0061 264.148C80.0988 264.922 79.1618 265.713 78.1146 266.259C74.8639 267.957 71.8979 267.44 69.7984 264.197Z" fill="#3F3F3F"/>
<path d="M86.2734 46.6107C86.8806 45.1938 87.4727 43.8118 88.0405 42.4199C88.4257 41.4754 89.0175 41.0091 90.08 41.1225C90.6713 41.1856 91.2661 41.2142 91.8611 41.2429L91.8626 41.243C92.3729 41.2676 92.8833 41.2922 93.3915 41.3385C93.6051 41.3579 93.8116 41.4544 94.0434 41.5628C94.1578 41.6162 94.2783 41.6726 94.4089 41.7239C94.1756 42.2862 93.9485 42.8361 93.7251 43.3772C93.2506 44.5262 92.7923 45.6358 92.3255 46.7418C89.0283 54.5528 85.7302 62.3634 82.4242 70.1706C81.3009 72.8233 80.1731 75.4741 79.0452 78.1249C77.7923 81.0698 76.5393 84.0147 75.2926 86.9622C73.8439 90.3873 72.4041 93.8162 70.9644 97.2452C70.3252 98.7675 69.686 100.29 69.046 101.812C69.0102 101.897 68.9747 101.982 68.9392 102.068C68.8553 102.269 68.7713 102.471 68.6832 102.671C68.1073 103.978 67.1525 104.382 65.8018 103.944C65.2372 103.761 65.0473 103.314 64.8511 102.852L64.8172 102.773C64.4545 101.926 64.0908 101.079 63.727 100.233C62.9338 98.3868 62.1406 96.541 61.3581 94.6906C59.3498 89.9417 57.3454 85.1911 55.3411 80.4405C54.0837 77.4603 52.8263 74.4801 51.5679 71.5004C50.8985 69.9152 50.2312 68.3291 49.5638 66.743L49.5627 66.74C47.8201 62.5986 46.0776 58.4571 44.2979 54.3317C42.5995 50.3946 39.7461 47.4728 35.9484 45.5331C35.1404 45.1203 34.1686 44.9882 33.2325 44.8609L33.0497 44.836C32.9896 44.8278 32.9298 44.8195 32.8701 44.811C31.4497 44.6101 31.3228 44.5613 31.0938 43.1582C31.0154 42.6779 30.9642 42.1896 30.9489 41.7034C30.9206 40.8081 31.0872 40.5983 32.0025 40.5562C32.9926 40.5107 33.9855 40.5187 34.9775 40.5268L35.3327 40.5295C35.8682 40.5335 36.4037 40.5369 36.9392 40.5404H36.9426C39.1587 40.5547 41.3749 40.5691 43.5903 40.6163C46.1182 40.6702 48.646 40.7589 51.1714 40.881C52.5575 40.9481 52.7237 41.1628 52.5562 42.4936C52.3625 44.0329 52.6215 45.5331 53.1134 46.9519C54.5957 51.2267 56.1084 55.4939 57.7415 59.7128C59.1205 63.2749 60.5669 66.8109 62.0133 70.3469C62.6172 71.8231 63.221 73.2993 63.8199 74.7774L63.8493 74.8499L63.8531 74.8592C65.3092 78.4527 66.7654 82.0463 68.2313 85.6358C68.3459 85.9163 68.4865 86.1861 68.6719 86.5416C68.7301 86.6533 68.7927 86.7733 68.8603 86.9048C68.9106 87.0026 68.9636 87.1067 69.0196 87.2184C72.417 79.3195 75.7185 71.5124 79.0097 63.7296L79.0124 63.7233L79.014 63.7196L79.0151 63.7172L79.0172 63.7122C81.1947 58.563 83.3677 53.4246 85.561 48.2773C85.7851 47.7504 86.0078 47.2305 86.2285 46.7153L86.2734 46.6107Z" fill="#3F3F3F"/>
<path d="M119.223 142.018C119.09 144.693 119.532 144.797 121.841 144.786C122.117 144.812 122.387 144.834 122.65 144.856C123.426 144.92 124.152 144.98 124.863 145.115C126.934 145.508 128.215 146.752 128.797 148.804C129.378 150.852 129.373 152.926 129.298 155.014C129.232 156.859 129.162 158.703 129.092 160.548C128.993 163.18 128.893 165.812 128.805 168.445C128.722 170.925 128.658 173.406 128.595 175.887C128.571 176.822 128.547 177.757 128.521 178.691C128.508 179.204 128.497 179.717 128.486 180.23C128.468 181.049 128.45 181.867 128.422 182.686C128.378 183.956 128.496 184.128 129.801 184.23C131.127 184.334 132.456 184.398 133.785 184.455C135.253 184.518 136.722 184.575 138.191 184.631C141.154 184.746 144.118 184.861 147.079 185.027C149.443 185.159 149.841 185.061 150.035 182.19C150.04 182.118 150.039 182.046 150.038 181.974C150.038 181.913 150.037 181.852 150.04 181.791C150.074 181.052 149.722 180.653 149.004 180.476C148.1 180.252 147.199 180 146.324 179.686C143.443 178.652 141.589 176.635 140.747 173.699C140.314 172.191 140.212 170.646 140.278 169.082C140.431 165.449 140.583 161.816 140.711 158.182C140.784 156.073 140.845 153.964 140.906 151.854C140.946 150.46 140.986 149.065 141.03 147.67C141.051 147.003 141.08 146.336 141.108 145.668C141.161 144.432 141.214 143.196 141.219 141.96C141.225 140.866 140.94 140.635 139.873 140.581C139.075 140.541 138.275 140.542 137.476 140.543C136.874 140.544 136.272 140.545 135.67 140.546L134.703 140.547C130.033 140.552 125.362 140.557 120.692 140.582C119.567 140.588 119.28 140.89 119.223 142.018Z" fill="#3F3F3F"/>
<path d="M140.659 128.949C137.114 133.604 130.297 132.081 128.567 127.372C127.635 124.833 128.086 122.413 129.726 120.351C131.299 118.375 133.515 117.609 136.028 117.996C139.383 118.512 141.647 120.845 141.965 124.217C142.121 125.87 141.725 127.479 140.659 128.949Z" fill="#3F3F3F"/>
<path d="M86.5453 159.254C86.5643 159.314 86.5699 159.423 86.5671 159.611C86.5498 159.562 86.541 159.432 86.5453 159.254Z" fill="#3F3F3F"/>
<path fill-rule="evenodd" clip-rule="evenodd" d="M199.598 177.832C199.6 178.293 199.602 178.754 199.604 179.215C199.609 180.261 199.614 181.308 199.618 182.354C199.627 184.915 199.635 187.475 199.642 190.035C199.66 196.031 199.678 202.027 199.716 208.023C199.739 211.629 199.814 215.235 199.892 218.948L199.892 218.967L199.892 218.974L199.893 219.01C199.909 219.746 199.924 220.486 199.939 221.231C199.945 221.276 199.951 221.318 199.957 221.355C199.983 221.353 200 221.412 200 221.505C199.998 221.52 199.989 221.5 199.98 221.468C199.99 221.512 199.997 221.536 199.997 221.536C199.994 224.336 199.994 227.136 199.995 229.936V229.95C199.996 236.518 199.997 243.087 199.952 249.655C199.908 256.048 199.766 262.44 199.6 268.831C199.502 272.644 199.372 276.462 199.066 280.262C199.055 280.394 199.045 280.525 199.034 280.656C198.861 282.85 198.685 285.064 197.657 287.125C196.018 290.407 193.504 292.734 190.261 294.328C187.571 295.651 184.694 296.458 181.76 296.93C176.46 297.783 171.141 298.54 165.814 299.199C161.456 299.739 157.076 300.117 152.7 300.494C148.192 300.883 143.681 301.253 139.163 301.504C135.076 301.731 130.983 301.868 126.891 302.005C126.062 302.033 125.234 302.06 124.406 302.089L123.712 302.113C120.44 302.226 117.166 302.339 113.893 302.357C109.278 302.384 104.662 302.332 100.048 302.266C97.5207 302.231 94.993 302.131 92.4685 302.002C88.5708 301.802 84.6752 301.563 80.7798 301.322C80.4021 301.298 80.0243 301.275 79.6465 301.252C77.2781 301.107 74.9093 300.962 72.5462 300.755C67.0215 300.27 61.4965 299.78 55.9808 299.203C50.289 298.608 44.6029 297.95 38.9241 297.241C35.9739 296.873 33.0296 296.458 30.0852 296.043L30.0835 296.042C28.2379 295.782 26.3923 295.522 24.5452 295.273C22.2973 294.97 20.0991 294.499 17.9189 293.85C14.8631 292.94 12.6514 291.01 10.82 288.515C8.14667 284.875 6.77265 280.723 6.19465 276.312C5.54911 271.386 4.97304 266.446 4.54436 261.496C4.0956 256.315 3.79392 251.121 3.49236 245.928L3.43249 244.898C3.20314 240.958 3.05148 237.013 2.91066 233.068C2.79066 229.707 2.71791 226.344 2.64518 222.982L2.63601 222.558C2.53804 218.034 2.45019 213.509 2.37659 208.984C2.32723 205.95 2.28399 202.916 2.24074 199.882L2.24006 199.835C2.195 196.672 2.14993 193.509 2.098 190.347C2.02798 186.083 1.93864 181.82 1.84929 177.556L1.8489 177.536L1.83845 177.039C1.78607 174.541 1.72883 172.042 1.6716 169.543C1.6364 168.006 1.60119 166.468 1.56709 164.931C1.54994 164.157 1.5327 163.383 1.51545 162.609C1.44368 159.39 1.3719 156.17 1.30735 152.95C1.24731 149.957 1.19181 146.964 1.1363 143.97L1.13513 143.907V143.902C1.1022 142.127 1.06927 140.353 1.0354 138.578L1.00198 136.824C0.926951 132.884 0.85192 128.945 0.772139 125.005C0.685915 120.747 0.597511 116.489 0.499899 112.231C0.470029 110.928 0.433262 109.625 0.396495 108.322C0.335585 106.164 0.274707 104.007 0.245098 101.849C0.225869 100.448 0.205696 99.0469 0.185523 97.6459C0.0918475 91.1452 -0.00182754 84.6437 2.70926e-05 78.1428C0.00149127 72.9392 0.158809 67.7347 0.316095 62.5322L0.347071 61.506C0.457828 57.827 0.614137 54.1462 0.881659 50.4758L0.904989 50.156C1.27767 45.0417 1.65075 39.9225 2.24823 34.8319C2.789 30.2245 3.51133 25.6373 4.23337 21.0521L4.23698 21.0293L4.39556 20.0215C4.45472 19.6453 4.51377 19.2691 4.57263 18.8928C5.26792 14.4494 7.55231 11.029 11.5623 8.92632C12.9615 8.19264 14.5121 7.69983 16.0426 7.27315C21.9953 5.61371 28.0587 4.44729 34.1691 3.57388C39.4824 2.81437 44.8133 2.13599 50.157 1.64311C54.6749 1.22637 59.2083 0.971051 63.7407 0.715796C64.7456 0.659197 65.7505 0.602598 66.7552 0.544242C68.9428 0.417184 71.135 0.364571 73.3267 0.311974L73.3279 0.311926L74.0803 0.29377C74.2549 0.289507 74.4294 0.28518 74.604 0.280771C75.7009 0.253033 76.7979 0.222057 77.8949 0.191066C81.2344 0.0967235 84.5749 0.00233261 87.9145 3.87276e-05C90.9126 -0.00201113 93.9107 0.0776566 96.9088 0.157324L96.9107 0.157373C98.3052 0.194433 99.6996 0.231493 101.094 0.260338C101.851 0.276004 102.609 0.287181 103.366 0.298341C104.385 0.313357 105.404 0.328373 106.422 0.354338C107.185 0.373795 107.949 0.391707 108.712 0.409619H108.716C111.235 0.468772 113.754 0.527925 116.271 0.642652C119.004 0.76727 121.735 0.933454 124.467 1.09964H124.472C125.679 1.17306 126.887 1.24648 128.095 1.31632C128.761 1.35483 129.428 1.38839 130.094 1.42195L130.098 1.4222C131.514 1.4935 132.929 1.56481 134.341 1.68331C135.996 1.8222 137.65 1.95906 139.305 2.09593C145.477 2.60646 151.65 3.11702 157.812 3.73281C163.138 4.26495 168.449 4.94033 173.759 5.61558L173.763 5.61602L173.794 5.62002C174.681 5.73276 175.567 5.84549 176.454 5.95755C176.799 6.00118 177.145 6.042 177.492 6.08283C179.437 6.31224 181.391 6.54254 183.232 7.27873C184.216 7.67206 185.183 8.13705 186.096 8.67326C188.566 10.123 189.7 12.5238 190.452 15.1309C191.784 19.753 192.431 24.5016 192.971 29.2697C193.218 31.4603 193.482 33.649 193.746 35.8378L193.747 35.8501L193.748 35.8622C194.094 38.7322 194.44 41.6022 194.75 44.4762C195.211 48.7554 195.591 53.0439 195.959 57.3324C196.398 62.4593 196.824 67.5879 197.184 72.7208C197.383 75.565 197.527 78.4132 197.67 81.2612V81.2654C197.725 82.3605 197.78 83.4556 197.838 84.5504C198.074 88.9789 198.31 93.4073 198.529 97.8366C198.569 98.6417 198.583 99.4481 198.597 100.254C198.604 100.647 198.61 101.04 198.62 101.432C198.65 102.623 198.681 103.814 198.713 105.005C198.781 107.585 198.849 110.166 198.897 112.746C198.98 117.233 199.047 121.719 199.113 126.206C199.133 127.533 199.152 128.86 199.172 130.188C199.205 132.382 199.237 134.577 199.268 136.772C199.297 138.793 199.326 140.814 199.356 142.836C199.363 143.323 199.392 143.81 199.441 144.474C199.471 144.651 199.496 144.755 199.496 144.755C199.489 145.381 199.481 146.007 199.473 146.633C199.455 148.005 199.437 149.377 199.435 150.749C199.428 156.213 199.421 161.677 199.445 167.14C199.447 167.759 199.496 168.378 199.545 168.998C199.591 169.571 199.636 170.145 199.645 170.719C199.662 171.846 199.632 172.974 199.601 174.164L199.6 174.174C199.59 174.565 199.58 174.963 199.571 175.371C199.561 175.461 199.557 175.522 199.556 175.568C199.557 175.546 199.561 175.521 199.566 175.491C199.574 175.464 199.586 175.577 199.579 175.634C199.566 175.634 199.558 175.619 199.556 175.592C199.557 175.636 199.563 175.663 199.572 175.69L199.572 175.694C199.584 176.247 199.597 176.8 199.595 177.5C199.585 177.586 199.58 177.647 199.579 177.693C199.58 177.672 199.584 177.647 199.59 177.619C199.599 177.59 199.609 177.711 199.604 177.771C199.59 177.772 199.582 177.757 199.579 177.732C199.581 177.776 199.588 177.804 199.598 177.832ZM9.99199 156.71C9.97598 157.085 9.95773 157.461 9.93948 157.836C9.89952 158.657 9.8596 159.478 9.84333 160.3C9.78544 163.224 9.73931 166.149 9.69317 169.073V169.076C9.68204 169.783 9.67088 170.489 9.65956 171.196C9.63275 172.87 9.6019 174.544 9.57105 176.219C9.49885 180.136 9.42669 184.054 9.40638 187.972C9.37108 194.799 9.39958 201.626 9.42809 208.452L9.43319 209.679C9.44917 213.54 9.47696 217.402 9.57854 221.262C9.71155 226.318 9.88576 231.373 10.1136 236.425C10.2596 239.66 10.4718 242.894 10.7645 246.119C11.3626 252.706 12.0854 259.284 13.3949 265.774C14.1143 269.339 14.9203 272.895 15.8762 276.404C16.8676 280.043 18.9993 282.8 22.5994 284.334C26.6244 286.048 30.7881 287.271 35.0642 288.123C44.5245 290.008 54.0987 291.064 63.693 291.949C67.2717 292.279 70.8558 292.573 74.4433 292.782L74.6747 292.795C79.8681 293.098 85.0642 293.401 90.2634 293.529C92.6898 293.588 95.1199 293.497 97.5501 293.406C98.6255 293.366 99.701 293.326 100.776 293.299C101.772 293.273 102.769 293.249 103.765 293.225C106.274 293.164 108.783 293.103 111.292 293.026C116.613 292.862 121.933 292.691 127.253 292.495C131.462 292.34 135.671 292.159 139.879 291.96C140.573 291.927 141.267 291.896 141.962 291.865L141.971 291.864C144.863 291.734 147.757 291.603 150.64 291.363C155.06 290.996 159.485 290.6 163.876 289.985C168.97 289.272 174.04 288.365 179.096 287.41C180.371 287.169 181.619 286.542 182.757 285.883C184.53 284.856 185.846 283.314 186.566 281.391C187.722 278.306 188.394 275.086 189.004 271.855C190.278 265.115 190.543 258.282 190.793 251.457C191.006 245.649 191.059 239.832 191.069 234.019C191.075 230.494 191.021 226.968 190.967 223.443L190.967 223.437C190.933 221.239 190.899 219.042 190.88 216.844C190.854 213.832 190.842 210.819 190.829 207.807C190.819 205.268 190.808 202.729 190.79 200.191C190.754 195.355 190.704 190.518 190.638 185.683C190.561 180.046 190.472 174.41 190.366 168.774C190.326 166.69 190.268 164.606 190.21 162.522C190.173 161.191 190.136 159.861 190.104 158.53C190.065 156.94 190.031 155.35 189.996 153.759C189.945 151.446 189.895 149.134 189.833 146.821C189.751 143.761 189.649 140.702 189.527 137.644C189.447 135.633 189.356 133.623 189.264 131.614L189.263 131.597C189.188 129.936 189.112 128.275 189.043 126.614C188.953 124.458 188.869 122.302 188.785 120.146C188.696 117.87 188.607 115.593 188.511 113.317C188.433 111.442 188.347 109.567 188.261 107.692C188.164 105.58 188.067 103.468 187.981 101.355C187.865 98.5324 187.76 95.7089 187.654 92.8855C187.585 91.0539 187.517 89.2223 187.446 87.3908C187.272 82.9142 187.093 78.4379 186.911 73.9617C186.865 72.852 186.822 71.7421 186.778 70.6323V70.6272C186.655 67.4833 186.532 64.3394 186.369 61.1975C186.145 56.8558 185.899 52.514 185.57 48.1793C185.063 41.4935 184.27 34.838 183.113 28.2319C182.654 25.6102 182.115 22.9998 181.52 20.4053C180.981 18.0507 179.445 16.5195 177.174 15.7715C176.844 15.6628 176.513 15.5525 176.183 15.4422L176.18 15.441C174.488 14.8759 172.791 14.3091 171.056 13.9352C166.328 12.9163 161.582 11.9582 156.815 11.144C148.147 9.66375 139.401 8.7977 130.639 8.12236C125.908 7.75771 121.166 7.51313 116.424 7.32008C112.17 7.14689 107.91 7.05716 103.653 7.04384C101.003 7.03556 98.354 7.09665 95.7046 7.15774L95.7026 7.15779C94.4045 7.18772 93.1064 7.21766 91.8083 7.23944C90.0959 7.26817 88.3834 7.29287 86.6709 7.31756C83.3695 7.36515 80.0681 7.41273 76.7674 7.48931C73.4849 7.56545 70.2008 7.67276 66.9242 7.8758C62.8523 8.12815 58.7778 8.40442 54.7218 8.83374C50.0459 9.32866 45.359 9.83133 40.7322 10.6456C36.1044 11.4601 31.5263 12.5884 26.963 13.7261C24.428 14.3582 21.939 15.2117 19.4829 16.1119C17.3894 16.8792 15.6903 18.2452 14.5839 20.2292C13.6062 21.9822 12.9136 23.8418 12.4662 25.812C10.7288 33.4628 10.1098 41.2474 9.67843 49.049C9.45076 53.1658 9.31616 57.294 9.32751 61.4165C9.3486 69.0698 9.42155 76.7229 9.49449 84.3761C9.52479 87.5543 9.55508 90.7326 9.58166 93.9108C9.59777 95.8352 9.61182 97.7597 9.62588 99.6841C9.63743 101.268 9.64901 102.852 9.6617 104.435C9.68201 106.965 9.70303 109.495 9.72405 112.025C9.76355 116.775 9.80305 121.525 9.83767 126.276C9.85325 128.415 9.86305 130.554 9.87297 132.724L9.87326 132.783L9.87346 132.83C9.8812 134.519 9.88904 136.227 9.89975 137.969C9.93658 138.08 9.97641 138.278 10.0046 138.531C9.9629 138.414 9.93284 138.242 9.89984 137.985L9.90027 138.052C9.93089 138.231 9.9616 138.411 9.9808 138.848C9.96824 144.391 9.95568 149.934 9.92174 155.673C9.95077 155.932 9.97979 156.192 9.99199 156.71Z" fill="#3F3F3F"/>
<path d="M199.5 144.728C199.496 144.755 199.471 144.651 199.466 144.598C199.49 144.593 199.504 144.645 199.5 144.728Z" fill="#3F3F3F"/>
</g>
<defs>
<clipPath id="clip0_3_4">
<rect width="200" height="303" fill="white"/>
</clipPath>
</defs>
</svg>
